<svg xmlns="http://www.w3.org/2000/svg" width="24" height="24" viewBox="0 0 24 24">
    <g fill="none" fill-rule="evenodd">
        <g fill="#363636">
            <g>
                <path d="M19.807 20.051c0 .41-.096.712-.286.907-.191.195-.487.292-.891.292H5.37c-.404 0-.702-.097-.896-.292-.195-.195-.292-.496-.292-.907V8.991l7.408-6.206c.13-.122.268-.186.415-.19.148-.003.297.06.448.19l7.354 6.187V20.05zM13.037 1.91c-.31-.273-.645-.41-1.005-.41-.36 0-.701.137-1.026.41L.726 10.527c-.151.123-.226.27-.226.443 0 .13.048.245.145.345.097.101.229.152.394.152.094 0 .175-.02.244-.06.068-.04.13-.088.188-.146L3.156 9.85v10.439c0 .633.172 1.12.513 1.462.342.342.837.514 1.485.514h13.681c.648 0 1.145-.172 1.49-.514.346-.342.518-.829.518-1.462V9.844l1.685 1.417c.065.058.13.107.2.146.068.04.146.06.232.06.151 0 .28-.045.384-.135.103-.09.156-.211.156-.362 0-.173-.076-.32-.227-.443L13.037 1.91z" transform="translate(-12 -12) translate(12 12)"/>
            </g>
        </g>
    </g>
</svg>
