<svg xmlns="http://www.w3.org/2000/svg" width="24" height="24" viewBox="0 0 24 24">
    <g fill="none" fill-rule="evenodd">
        <g fill="#363636">
            <g>
                <path d="M8.765 5.56v1.086H5.621c-.663 0-1.166.171-1.508.514-.343.343-.515.85-.515 1.52v11.2c0 .67.172 1.177.515 1.519.342.343.845.515 1.508.515h12.517c.647 0 1.148-.172 1.503-.515.354-.342.531-.849.531-1.52V8.68c0-.67-.177-1.177-.531-1.52-.355-.343-.856-.514-1.503-.514h-3.109V5.559h3.143c1.018 0 1.786.26 2.306.78s.78 1.282.78 2.283v11.327c0 .993-.26 1.75-.78 2.27S19.19 23 18.172 23H5.597c-1.023 0-1.797-.259-2.317-.774-.52-.517-.78-1.276-.78-2.277V8.622c0-1.01.26-1.772.78-2.288.52-.516 1.294-.775 2.317-.775h3.168zM11.874 0c.154 0 .285.05.392.15.108.101.163.224.163.37v12.448l-.047 1.549 1.121-1.133 1.976-2.034c.1-.116.228-.173.382-.173.132 0 .247.048.347.144.1.096.15.21.15.34 0 .132-.053.252-.162.36l-3.93 3.871c-.061.07-.125.116-.19.139-.065.022-.133.034-.202.034-.063 0-.126-.012-.191-.034-.065-.023-.129-.07-.191-.139L7.55 12.02c-.108-.107-.162-.227-.162-.358 0-.131.049-.245.145-.34.096-.097.214-.145.352-.145.147 0 .273.057.382.173l1.988 2.034 1.12 1.144-.034-1.56V.52c0-.146.052-.269.156-.37.104-.1.23-.15.376-.15z" transform="translate(-12 -12) translate(12 12)"/>
            </g>
        </g>
    </g>
</svg>
