<svg xmlns="http://www.w3.org/2000/svg" width="24" height="24" viewBox="0 0 24 24">
    <g fill="none" fill-rule="evenodd">
        <g fill="#FC3DAB">
            <path d="M18.808 2.805c-.979-.559-1.964-.842-2.93-.842-2.334 0-3.798 1.447-4.867 2.505l-.108.107-.122-.121c-1.06-1.052-2.51-2.491-4.835-2.491-.965 0-1.95.283-2.93.842C1.184 3.853.105 5.91.13 8.311c.042 4.104 3.108 8.209 8.202 10.982.775.422 1.801.87 2.207 1.043.122.052.251.078.38.078.123 0 .248-.024.365-.073.352-.145 1.27-.537 2.209-1.048C18.7 16.458 21.71 12.524 21.752 8.5c.025-2.424-1.131-4.66-2.944-5.696" transform="translate(1 1)"/>
        </g>
    </g>
</svg>
