<svg xmlns="http://www.w3.org/2000/svg" width="24" height="24" viewBox="0 0 24 24">
    <g fill="none" fill-rule="evenodd">
        <g fill="#363636">
            <g>
                <g>
                    <path d="M11.768.194c.263-.259.689-.259.952 0 .242.238.26.614.056.874l-.056.062-9.018 8.869 9.018 8.871c.242.239.26.614.056.874l-.056.062c-.243.239-.625.257-.889.055l-.063-.055-9.484-9.328c-.065-.065-.117-.142-.15-.227l-.028-.087-.004-.016c-.048-.196-.002-.401.121-.559l.057-.064L11.768.194z" transform="translate(-12 -12) translate(12 12) translate(2 2)"/>
                </g>
            </g>
        </g>
    </g>
</svg>
