<svg xmlns="http://www.w3.org/2000/svg" width="24" height="24" viewBox="0 0 24 24">
    <g fill="none" fill-rule="evenodd">
        <g fill="#363636">
            <path d="M13.029 18.44c-.898.49-1.778.865-2.11 1.003-.392-.168-1.384-.6-2.123-1.002C4.016 15.838 1.139 12.048 1.1 8.3c-.02-2.044.875-3.783 2.398-4.653.83-.474 1.654-.715 2.448-.715 1.925 0 3.16 1.225 4.151 2.21l.113.111c-1.166 1.22-1.85 2.627-1.85 3.837 0 1.49.836 2.875 2.292 3.803l.261.166.26-.166c1.457-.926 2.291-2.313 2.291-3.803 0-1.61-1.118-3.051-1.868-3.836l.097-.097c1.003-.991 2.25-2.225 4.186-2.225.794 0 1.618.241 2.448.715 1.512.865 2.476 2.765 2.454 4.843-.037 3.661-2.863 7.288-7.752 9.95M10.903 5.932c1.003 1.048 1.59 2.206 1.59 3.16 0 1.062-.571 2.07-1.58 2.806-1.01-.736-1.582-1.745-1.582-2.807 0-.963.58-2.12 1.572-3.159m7.905-3.127c-.979-.559-1.964-.842-2.93-.842-2.334 0-3.798 1.447-4.867 2.505l-.108.107-.122-.121c-1.06-1.052-2.51-2.491-4.835-2.491-.965 0-1.95.283-2.93.842C1.184 3.853.105 5.91.13 8.311c.042 4.104 3.108 8.209 8.202 10.982.775.422 1.801.87 2.207 1.043.122.052.251.078.38.078.123 0 .248-.024.365-.073.352-.145 1.27-.537 2.209-1.048C18.7 16.458 21.71 12.524 21.752 8.5c.025-2.424-1.131-4.66-2.944-5.696" transform="translate(1 1)"/>
        </g>
    </g>
</svg>
