<svg xmlns="http://www.w3.org/2000/svg" width="24" height="24" viewBox="0 0 24 24">
    <g fill="none" fill-rule="evenodd">
        <g fill="#FC3DAB">
            <g>
                <path d="M11.249 5.663v7.374l.034 1.341-.97-.982-1.965-2.035c-.116-.13-.266-.196-.451-.196-.162 0-.3.056-.416.167-.115.113-.173.245-.173.4 0 .17.065.311.197.427l3.929 3.872c.07.077.14.13.214.155.073.028.152.04.236.04.086 0 .164-.012.238-.04.073-.026.148-.078.225-.155l3.918-3.872c.131-.116.196-.258.196-.428 0-.146-.057-.277-.173-.393-.115-.116-.258-.173-.428-.173-.177 0-.323.066-.439.196l-1.964 2.035-.971.97.034-1.329V5.663h5.652c1.017 0 1.786.26 2.306.78s.78 1.282.78 2.283v11.223c0 .993-.26 1.75-.78 2.27S19.189 23 18.172 23H5.597c-1.024 0-1.797-.259-2.317-.774-.52-.517-.78-1.276-.78-2.277V8.726c0-1.017.26-1.781.78-2.294.52-.513 1.293-.769 2.317-.769h5.652zM11.873 0c.146 0 .276.05.388.15.11.1.167.224.167.37v5.432c0-.146-.054-.262-.162-.346-.108-.085-.239-.128-.393-.128-.138 0-.262.043-.37.128-.108.084-.165.2-.173.346V.52c0-.146.056-.27.167-.37.112-.1.238-.15.376-.15z" transform="translate(-12 -12) translate(12 12)"/>
            </g>
        </g>
    </g>
</svg>
